<svg xmlns:xlink="http://www.w3.org/1999/xlink" xmlns="http://www.w3.org/2000/svg" style="width:100%;height:100%" viewBox="0 0 48 47" preserveAspectRatio="none" width="48" height="47"><defs><svg data-name="Layer 2" viewBox="0 0 48.14 47.01" id="svg568426643_927"><path d="M22.5 3.69v4.15h20.97c2.58 0 4.67 2.09 4.67 4.67v24.21c0 1.58-.63 3.09-1.74 4.2l-4.56 4.56c-.99.99-2.32 1.54-3.71 1.54H27.8c-1.62 0-2.93-1.31-2.93-2.93v-4.9H3.46C1.55 39.19 0 37.64 0 35.73V10.1c0-1.56.62-3.06 1.73-4.17l4.42-4.42C7.12.54 8.43 0 9.8 0h9.02c2.04 0 3.69 1.65 3.69 3.69Zm22.67 32.68V13.95c0-1.28-1.03-2.31-2.31-2.31H19.65V4.98c0-.98-.79-1.77-1.77-1.77H10.1c-.57 0-1.12.23-1.52.63L5.65 6.77h8.39a2.29 2.29 0 0 1 2.29 2.29v5.66h22.04c1.5 0 2.71 1.21 2.71 2.71v23.02c0 .68.85.97 1.27.44l2.02-2.56c.52-.52.81-1.22.81-1.95ZM15.28 23.51h-.16c-.64 0-1.17.52-1.17 1.17v4.2c0 .64.52 1.17 1.17 1.17h.16c.64 0 1.17-.52 1.17-1.17v-4.2c0-.64-.52-1.17-1.17-1.17Zm10.2 0h-.16c-.64 0-1.17.52-1.17 1.17v4.2c0 .64.52 1.17 1.17 1.17h.16c.64 0 1.17-.52 1.17-1.17v-4.2c0-.64-.52-1.17-1.17-1.17Z" style="" data-name="Layer 1" fill="#FFFFFF"></path></svg></defs><g><path d="M22.5 3.69v4.15h20.97c2.58 0 4.67 2.09 4.67 4.67v24.21c0 1.58-.63 3.09-1.74 4.2l-4.56 4.56c-.99.99-2.32 1.54-3.71 1.54H27.8c-1.62 0-2.93-1.31-2.93-2.93v-4.9H3.46C1.55 39.19 0 37.64 0 35.73V10.1c0-1.56.62-3.06 1.73-4.17l4.42-4.42C7.12.54 8.43 0 9.8 0h9.02c2.04 0 3.69 1.65 3.69 3.69Zm22.67 32.68V13.95c0-1.28-1.03-2.31-2.31-2.31H19.65V4.98c0-.98-.79-1.77-1.77-1.77H10.1c-.57 0-1.12.23-1.52.63L5.65 6.77h8.39a2.29 2.29 0 0 1 2.29 2.29v5.66h22.04c1.5 0 2.71 1.21 2.71 2.71v23.02c0 .68.85.97 1.27.44l2.02-2.56c.52-.52.81-1.22.81-1.95ZM15.28 23.51h-.16c-.64 0-1.17.52-1.17 1.17v4.2c0 .64.52 1.17 1.17 1.17h.16c.64 0 1.17-.52 1.17-1.17v-4.2c0-.64-.52-1.17-1.17-1.17Zm10.2 0h-.16c-.64 0-1.17.52-1.17 1.17v4.2c0 .64.52 1.17 1.17 1.17h.16c.64 0 1.17-.52 1.17-1.17v-4.2c0-.64-.52-1.17-1.17-1.17Z" style="" data-name="Layer 1" fill="#FFFFFF"></path></g></svg>